# xmcd CD database file
#
# Track frame offsets:
#	150
#	11137
#	22062
#	41675
#	63650
#	81087
#	93137
#	103725
#	114937
#	128737
#	147112
#	165212
#	180737
#	199762
#	215425
#	230362
#	246762
#	260837
#	272925
#	287887
#	300675
#
# Disc length: 4189 seconds
#
# Revision: 1
# Processed by: cddbd v1.5PL3 Copyright (c) Steve Scherf et al.
# Submitted via: CDex 1.51
#
DISCID=2d105b15
DTITLE=Various Artist - Love Jazz Vocal
DYEAR=1900
DGENRE=Jazz
TTITLE0=レッツ・フェイス・ザ・ミュージック・アンド・ダンス(ナット・キング・コール)
TTITLE1=イージー・トゥ・ラヴ(カーメン・マクレエ)
TTITLE2=エンジェル・アイズ(ジューン・クリスティ)
TTITLE3=バードランドの子守唄(メル・トーメ)
TTITLE4=ソフィスティケイテッド・レディ(サラ・ヴォーン)
TTITLE5=貴女と夜と音楽と(ジュリー・ロンドン)
TTITLE6=エニシング・ゴーズ(トニー・ベネット)
TTITLE7=イッツ・オールライト・ウィズ・ミー(クリス・コナー)
TTITLE8=バット・ノット・フォー・ミー(チェット・ベイカー)
TTITLE9=バット・ビューティフル(ナンシー・ウィルソン)
TTITLE10=オール・オブ・ミー(キャロル・スローン)
TTITLE11=星影のステラ(ジョー・ウィリアムス)
TTITLE12=ヒアズ・ザット・レイニー・デイ(スー・レイニー)
TTITLE13=サマータイム(ルー・ロウルズ)
TTITLE14=ビギン・ザ・ビギン(ジョー・スタッフォード)
TTITLE15=ブラック・コーヒー(アン・リチャーズ)
TTITLE16=インヴィテーション(フォア・フレッシュメン)
TTITLE17=アイヴ・ガット・ユー・アンダー・マイ・スキン(ダイナ・ショア)
TTITLE18=アイ・シュッド・ケア(ジューン・ハットン)
TTITLE19=浮気はやめた(ジョニー・ハートマン)
TTITLE20=ラヴァー・マン(ダイナ・ワシントン)
EXTD=
EXTT0=
EXTT1=
EXTT2=
EXTT3=
EXTT4=
EXTT5=
EXTT6=
EXTT7=
EXTT8=
EXTT9=
EXTT10=
EXTT11=
EXTT12=
EXTT13=
EXTT14=
EXTT15=
EXTT16=
EXTT17=
EXTT18=
EXTT19=
EXTT20=
PLAYORDER=
